<mxfile host="app.diagrams.net" modified="2024-03-31T16:04:08.273Z" agent="Mozilla/5.0 (Windows NT 10.0; Win64; x64) AppleWebKit/537.36 (KHTML, like Gecko) Chrome/123.0.0.0 Safari/537.36" version="22.0.0" etag="FowLV_8e4a7zRr29CzGm" type="github">
  <diagram name="Halaman-1" id="QpG0lrBCCaJD3BbdkrVz">
    <mxGraphModel>
      <root>
        <mxCell id="0" />
        <mxCell id="1" parent="0" />
      </root>
    </mxGraphModel>
  </diagram>
</mxfile>
